<?xml version="1.0" encoding="utf-8"?>
<!-- Uploaded to: SVG Repo, www.svgrepo.com, Generator: SVG Repo Mixer Tools -->
<svg width="800px" height="800px" viewBox="0 0 1024 1024" class="icon"  version="1.1" xmlns="http://www.w3.org/2000/svg"><path d="M128 213.333333v597.333334c0 46.933333 38.4 85.333333 85.333333 85.333333h597.333334c46.933333 0 85.333333-38.4 85.333333-85.333333V213.333333c0-46.933333-38.4-85.333333-85.333333-85.333333H213.333333c-46.933333 0-85.333333 38.4-85.333333 85.333333z" fill="#4CAF50" /><path d="M140.8 170.666667l128 128c-8.533333 12.8-12.8 27.733333-12.8 42.666666 0 46.933333 38.4 85.333333 85.333333 85.333334s85.333333-38.4 85.333334-85.333334-38.4-85.333333-85.333334-85.333333c-14.933333 0-29.866667 4.266667-42.666666 12.8l-128-128c-12.8 6.4-23.466667 17.066667-29.866667 29.866667z m200.533333 138.666666c17.066667 0 32 14.933333 32 32s-14.933333 32-32 32-32-14.933333-32-32 14.933333-32 32-32zM883.2 853.333333l-128-128c8.533333-12.8 12.8-27.733333 12.8-42.666666 0-46.933333-38.4-85.333333-85.333333-85.333334s-85.333333 38.4-85.333334 85.333334 38.4 85.333333 85.333334 85.333333c14.933333 0 29.866667-4.266667 42.666666-12.8l128 128c12.8-6.4 23.466667-17.066667 29.866667-29.866667zM682.666667 714.666667c-17.066667 0-32-14.933333-32-32s14.933333-32 32-32 32 14.933333 32 32-14.933333 32-32 32zM341.333333 768c46.933333 0 85.333333-38.4 85.333334-85.333333 0-14.933333-4.266667-29.866667-12.8-42.666667L640 413.866667c12.8 8.533333 27.733333 12.8 42.666667 12.8 46.933333 0 85.333333-38.4 85.333333-85.333334s-38.4-85.333333-85.333333-85.333333-85.333333 38.4-85.333334 85.333333c0 14.933333 4.266667 29.866667 12.8 42.666667L384 610.133333c-12.8-8.533333-27.733333-12.8-42.666667-12.8-46.933333 0-85.333333 38.4-85.333333 85.333334s38.4 85.333333 85.333333 85.333333z m341.333334-458.666667c17.066667 0 32 14.933333 32 32s-14.933333 32-32 32-32-14.933333-32-32 14.933333-32 32-32z m-341.333334 341.333334c17.066667 0 32 14.933333 32 32s-14.933333 32-32 32-32-14.933333-32-32 14.933333-32 32-32z" fill="#FFC107" /></svg>